<?xml version="1.0" standalone="no"?>
<!DOCTYPE svg PUBLIC "-//W3C//DTD SVG 20010904//EN"
 "http://www.w3.org/TR/2001/REC-SVG-20010904/DTD/svg10.dtd">
<svg version="1.0" xmlns="http://www.w3.org/2000/svg"
 width="637.000000pt" height="637.000000pt" viewBox="0 0 637.000000 637.000000"
 preserveAspectRatio="xMidYMid meet">
<metadata>
Created by potrace 1.14, written by Peter Selinger 2001-2017
</metadata>
<g transform="translate(0.000000,637.000000) scale(0.100000,-0.100000)"
fill="#000000" stroke="none">
<path d="M3105 6228 c-44 -9 -70 -21 -160 -73 -33 -19 -68 -38 -77 -41 -10 -4
-18 -9 -18 -13 0 -4 -16 -13 -35 -21 -19 -8 -35 -18 -35 -24 0 -5 -3 -6 -6 -3
-4 4 -19 -2 -34 -13 -16 -11 -33 -20 -38 -20 -6 0 -17 -6 -24 -12 -8 -7 -32
-22 -53 -34 -85 -44 -140 -77 -147 -88 -4 -6 -8 -8 -8 -3 0 4 -17 -3 -37 -16
-21 -13 -69 -40 -106 -61 -139 -76 -230 -128 -237 -136 -3 -3 -30 -18 -60 -33
-71 -36 -134 -70 -140 -78 -3 -3 -21 -13 -40 -22 -19 -10 -42 -22 -50 -27 -25
-16 -282 -160 -286 -160 -3 0 -23 -12 -47 -27 -23 -15 -64 -39 -92 -53 -27
-15 -68 -37 -90 -50 -22 -12 -60 -34 -85 -48 -25 -13 -71 -40 -103 -58 -32
-19 -61 -34 -66 -34 -4 0 -17 -9 -29 -20 -12 -12 -22 -18 -22 -14 0 3 -6 2
-12 -3 -13 -10 -49 -31 -168 -96 -30 -17 -57 -33 -60 -36 -3 -3 -12 -7 -20 -9
-8 -2 -16 -8 -18 -13 -2 -5 -12 -9 -23 -9 -10 0 -19 -4 -19 -8 0 -5 -21 -20
-47 -33 -27 -13 -51 -28 -55 -34 -4 -5 -8 -6 -8 -2 0 4 -20 -6 -44 -23 -25
-16 -48 -30 -51 -30 -16 0 -88 -87 -108 -129 l-22 -46 0 -1340 0 -1340 29 -55
c34 -66 95 -126 162 -160 27 -14 77 -42 111 -62 35 -21 65 -38 69 -38 3 0 18
-9 33 -19 15 -11 54 -34 86 -52 33 -18 80 -45 105 -61 25 -15 70 -41 100 -57
118 -65 165 -94 172 -105 4 -6 8 -7 8 -2 0 4 11 1 24 -8 14 -8 40 -24 58 -34
88 -50 173 -101 192 -115 6 -4 36 -20 66 -36 30 -15 127 -69 215 -119 87 -51
163 -92 167 -92 4 0 8 -4 8 -8 0 -5 16 -14 35 -22 19 -8 35 -17 35 -22 0 -4 4
-8 9 -8 9 0 94 -47 156 -85 11 -7 24 -12 29 -13 5 0 12 -4 15 -9 8 -11 40 -31
81 -49 19 -9 37 -19 40 -23 3 -4 30 -20 60 -35 30 -16 62 -34 71 -42 8 -8 19
-14 24 -14 4 0 40 -19 79 -43 39 -24 78 -46 86 -50 8 -4 38 -20 65 -37 28 -16
71 -41 97 -55 26 -14 91 -51 145 -83 168 -101 201 -114 286 -113 82 0 132 19
255 93 34 21 65 38 67 38 3 0 35 18 71 40 36 22 68 40 70 40 3 0 64 34 137 76
73 41 136 76 142 77 5 1 15 8 20 15 6 7 17 14 26 15 8 2 29 12 45 24 17 13 34
20 38 16 3 -3 6 -2 6 4 0 10 20 19 44 21 5 0 13 7 18 16 5 9 13 16 17 16 5 0
80 41 167 91 87 49 163 91 168 92 6 1 13 4 16 7 7 8 146 89 210 123 30 16 81
45 113 63 32 19 60 34 62 34 2 0 45 25 96 55 50 30 94 55 96 55 3 0 31 15 62
34 31 18 92 53 136 76 44 23 88 49 98 58 9 8 17 11 17 6 0 -5 4 -4 8 1 10 16
102 67 102 58 0 -4 4 -3 8 3 4 6 32 25 62 41 30 17 80 45 110 62 30 17 93 52
140 78 47 26 91 52 98 58 44 34 78 77 101 125 l26 55 0 1345 0 1345 -28 48
c-38 64 -95 117 -170 157 -34 18 -75 41 -92 52 -16 10 -37 21 -45 25 -8 3 -42
23 -75 42 -93 56 -97 59 -140 81 -22 12 -81 46 -131 76 -50 30 -96 54 -102 54
-7 0 -12 4 -12 9 0 5 -15 15 -32 22 -18 7 -39 19 -46 26 -7 7 -20 13 -28 13
-8 0 -14 5 -14 10 0 6 -5 10 -10 10 -6 0 -28 11 -49 24 -21 14 -42 22 -45 19
-3 -4 -6 -2 -6 4 0 6 -32 28 -71 49 -39 22 -91 50 -114 64 -91 53 -243 139
-290 165 -11 6 -39 23 -62 38 -24 15 -45 27 -49 27 -3 0 -18 9 -34 20 -15 11
-30 17 -34 13 -3 -3 -6 -2 -6 3 0 5 -26 23 -57 39 -32 17 -64 36 -71 42 -7 7
-24 16 -38 19 -13 3 -24 10 -24 15 0 5 -4 9 -9 9 -5 0 -31 13 -58 28 -116 69
-172 101 -223 128 -30 16 -57 32 -60 35 -3 3 -33 21 -66 40 -34 19 -119 67
-189 107 -70 39 -131 72 -136 72 -5 0 -9 4 -9 8 0 4 -47 32 -105 61 -112 58
-172 69 -260 49z"/>
</g>
</svg>
